# xmcd
#
# Track frame offsets:
#	150
#	17831
#	35880
#	52706
#	70861
#	90122
#	108426
#	125294
#	139105
#	159392
#	176692
#	193750
#	208422
#	226208
#	243405
#	261043
#	279435
#	294829
#	310634
#	329950
#
# Disc length: 4654 seconds
#
# Revision: 0
# Processed by: cddbd v1.5.2PL0 Copyright (c) Steve Scherf et al.
# Submitted via: EasyCDDAExtractor 16.0.9.1
#
DISCID=1c122c14
DTITLE=Hott Urban 1 Canada
DYEAR=2015
DGENRE=blues
TTITLE0=Snoop Dogg ft. Stevie Wonder\n - California Roll\n
TTITLE1=Tink\n - Million\n
TTITLE2=Mark Ronson ft. Mystikal\n - Feel Right\n
TTITLE3=Miguel ft. Wale\n - Coffee\n
TTITLE4=Big Sean ft. Kanye West and John Legend\n - One Man Can Change The Wor
TTITLE4=ld\n
TTITLE5=Tamia\n - Stuck With Me\n
TTITLE6=A$AP Rocky ft. Rod Stewart x Miguel x Mark Ronson\n - Everyday\n
TTITLE7=Silento\n - Watch Me\n
TTITLE8=Juicy J ft. Wiz Khalifa and R. City\n - For Everybody\n
TTITLE9=Doughboy\n - Break Da Knob\n
TTITLE10=Gipp ft. Eric Benet\n - Beautiful Lover\n
TTITLE11=Casey Veggies ft. Dej Loaf\n - Tied Up\n
TTITLE12=Charlie Wilson\n - My Favorite Part of You\n
TTITLE13=King Los ft. Ty Dolla $ign\n - Can't Fade Us\n
TTITLE14=Kem\n - Nobody\n
TTITLE15=D'Angelo And The Vanguard\n - Betray My Heart\n
TTITLE16=Mo Beatz ft. Trina\n - Bread Winner\n
TTITLE17=Johnny Gill\n - Game Changer\n
TTITLE18=Tyrese\n - Shame\n
TTITLE19=Raheem DeVaughn\n - Temperature's Rising\n
EXTD=
EXTT0=
EXTT1=
EXTT2=
EXTT3=
EXTT4=
EXTT5=
EXTT6=
EXTT7=
EXTT8=
EXTT9=
EXTT10=
EXTT11=
EXTT12=
EXTT13=
EXTT14=
EXTT15=
EXTT16=
EXTT17=
EXTT18=
EXTT19=
PLAYORDER=
